<?xml version="1.0" standalone="no"?><!DOCTYPE svg PUBLIC "-//W3C//DTD SVG 1.1//EN" "http://www.w3.org/Graphics/SVG/1.1/DTD/svg11.dtd"><svg t="1583396862144" class="icon" viewBox="0 0 1024 1024" version="1.1" xmlns="http://www.w3.org/2000/svg" p-id="3531" xmlns:xlink="http://www.w3.org/1999/xlink" width="200" height="200"><defs><style type="text/css"></style></defs><path d="M510.829714 0.950857a510.025143 510.025143 0 1 0 0 1020.050286 510.025143 510.025143 0 1 0 0-1020.050286z m186.733715 339.821714L606.427429 431.981714h39.862857a39.497143 39.497143 0 0 1 0 79.140572H550.4v50.468571h95.817143a39.497143 39.497143 0 0 1 0 79.067429h-95.817143v109.714285a39.497143 39.497143 0 0 1-79.067429 0v-109.714285H375.442286a39.497143 39.497143 0 0 1 0-78.994286h95.817143v-50.614857h-95.817143a39.497143 39.497143 0 0 1 0-78.994286h39.862857L324.096 340.699429a39.643429 39.643429 0 0 1 56.027429-55.954286l130.706285 130.852571 130.779429-130.779428a39.497143 39.497143 0 1 1 56.027428 55.881143z" p-id="3532"></path></svg>