<?xml version="1.0" standalone="no"?><!DOCTYPE svg PUBLIC "-//W3C//DTD SVG 1.1//EN" "http://www.w3.org/Graphics/SVG/1.1/DTD/svg11.dtd"><svg t="1594951192690" class="icon" viewBox="0 0 1024 1024" version="1.1" xmlns="http://www.w3.org/2000/svg" p-id="3068" xmlns:xlink="http://www.w3.org/1999/xlink" width="200" height="200"><defs><style type="text/css"></style></defs><path d="M40.938138 315.4432v0.3072l455.68 263.3216a29.696 29.696 0 0 0 15.0016 4.0448 30.3616 30.3616 0 0 0 15.36-4.1984l452.5568-261.12a30.0032 30.0032 0 0 0-0.256-52.1216L528.362138 4.0448a30.0032 30.0032 0 0 0-31.744 1.0752L44.522138 266.24a29.952 29.952 0 0 0-11.0592 40.96 30.72 30.72 0 0 0 7.4752 8.2432z" p-id="3069"></path><path d="M979.229338 485.9392l-84.8896-49.2032s-262.912 154.112-352.3072 201.8816c-14.6944 7.936-25.9072 11.6224-30.0544 11.6224a60.3136 60.3136 0 0 1-31.5392-9.5744L129.770138 437.248 44.522138 486.4a30.0032 30.0032 0 0 0-11.0592 40.96 28.928 28.928 0 0 0 7.4752 8.6016v0.3584l455.68 263.2192a30.208 30.208 0 0 0 15.0016 4.0448 29.9008 29.9008 0 0 0 15.36-4.2496l452.5568-261.12a30.0032 30.0032 0 0 0-0.256-52.1216z" p-id="3070"></path><path d="M979.229338 706.56l-84.5312-48.9984s-281.2416 166.8096-353.28 203.9808c-18.3296 8.448-22.3744 9.0624-29.3888 9.0624a96.1536 96.1536 0 0 1-26.7264-9.5232C376.912538 803.84 129.462938 657.92 129.462938 657.92l-84.9408 48.9984a30.0544 30.0544 0 0 0-11.0592 40.96 29.5936 29.5936 0 0 0 7.4752 8.448v0.3584l455.68 263.2704a29.696 29.696 0 0 0 15.0016 4.0448 30.3616 30.3616 0 0 0 15.36-4.1984l452.5568-261.12a30.0032 30.0032 0 0 0-0.256-52.1216z" p-id="3071"></path></svg>